# xmcd CD database file
#
# Track frame offsets:
#	150
#	13042
#	38930
#	64817
#	96522
#	137317
#	144382
#	171117
#	192907
#	234517
#	267190
#	293827
#	318480
#
# Disc length: 4558 seconds
#
# Revision: 0
# Processed by: cddbd v1.4PL0 Copyright (c) Steve Scherf et al.
# Submitted via: CDex 1.50beta8
#
DISCID=b911cc0d
DTITLE=Tatsuo Sunaga - Hotel Soundtrack Vol.1
DYEAR=2003
DGENRE=Jazz
TTITLE0=Gutevolk - Yume-Kitan
TTITLE1=Nicola Conte apresenta Rosalia De Souza
TTITLE2=Himiko Kikuchi - What's Baby Singin'
TTITLE3=Amp Fiddler - Love and War
TTITLE4=Jazzanova - Days To Come (Ian O' Brian Remix)
TTITLE5=Kammerflimmer Kollektief - There's A Weight On You, But You Can't Feel It!
TTITLE6=Claudio Roditi - Snow Samba
TTITLE7=Oneness Of Juju - River Luv Rite
TTITLE8=Quartetto Lo Greco - Giant Steps (Tanor Version)
TTITLE9=So Hayashi - Take It From The Past
TTITLE10=Sicania Soul - Starlite (Sicania Soul Live Mix)
TTITLE11=The Five Corners Quintet featuring Eero Koivistonien - Trading Eights
TTITLE12=Peter Fessler - Heere's That Rainy Day
EXTD=YEAR: 2003
EXTT0=
EXTT1=
EXTT2=
EXTT3=
EXTT4=
EXTT5=
EXTT6=
EXTT7=
EXTT8=
EXTT9=
EXTT10=
EXTT11=
EXTT12=
PLAYORDER=
